<svg width="160" height="160" viewBox="0 0 100 100" xmlns="http://www.w3.org/2000/svg">
    <!-- Four-petal flower symbol - four rounded loops meeting at center (White version) -->
    <path d="M 50 50 
        C 50 35, 35 25, 25 30
        C 15 35, 20 50, 25 60
        C 30 70, 45 70, 50 50 Z" 
        fill="none" 
        stroke="#ffffff" 
        stroke-width="3" 
        stroke-linecap="round" 
        stroke-linejoin="round"/>
    <path d="M 50 50 
        C 65 50, 75 35, 70 25
        C 65 15, 50 20, 40 25
        C 30 30, 35 45, 50 50 Z" 
        fill="none" 
        stroke="#ffffff" 
        stroke-width="3" 
        stroke-linecap="round" 
        stroke-linejoin="round"/>
    <path d="M 50 50 
        C 50 65, 65 75, 75 70
        C 85 65, 80 50, 75 40
        C 70 30, 55 30, 50 50 Z" 
        fill="none" 
        stroke="#ffffff" 
        stroke-width="3" 
        stroke-linecap="round" 
        stroke-linejoin="round"/>
    <path d="M 50 50 
        C 35 50, 25 65, 30 75
        C 35 85, 50 80, 60 75
        C 70 70, 65 55, 50 50 Z" 
        fill="none" 
        stroke="#ffffff" 
        stroke-width="3" 
        stroke-linecap="round" 
        stroke-linejoin="round"/>
</svg>

